<?xml version="1.0" encoding="UTF-8" standalone="no"?>
<!-- Created with Inkscape (http://www.inkscape.org/) -->

<svg
   width="25.752617mm"
   height="26.53483mm"
   viewBox="0 0 25.752617 26.53483"
   version="1.1"
   id="svg171590"
   inkscape:version="1.1 (c68e22c387, 2021-05-23)"
   sodipodi:docname="knob1.svg"
   xmlns:inkscape="http://www.inkscape.org/namespaces/inkscape"
   xmlns:sodipodi="http://sodipodi.sourceforge.net/DTD/sodipodi-0.dtd"
   xmlns="http://www.w3.org/2000/svg"
   xmlns:svg="http://www.w3.org/2000/svg">
  <sodipodi:namedview
     id="namedview171592"
     pagecolor="#ffffff"
     bordercolor="#666666"
     borderopacity="1.0"
     inkscape:pageshadow="2"
     inkscape:pageopacity="0.0"
     inkscape:pagecheckerboard="true"
     inkscape:document-units="mm"
     showgrid="false"
     inkscape:zoom="0.77682379"
     inkscape:cx="-49.560789"
     inkscape:cy="205.96691"
     inkscape:window-width="1920"
     inkscape:window-height="1058"
     inkscape:window-x="-8"
     inkscape:window-y="-8"
     inkscape:window-maximized="1"
     inkscape:current-layer="layer1" />
  <defs
     id="defs171587" />
  <g
     inkscape:label="Layer 1"
     inkscape:groupmode="layer"
     id="layer1"
     transform="translate(-20.590009,-94.326739)">
    <g
       id="g172536"
       transform="translate(9.8772936,-56.538991)">
      <path
         style="fill:#fefefe;stroke-width:0.352778"
         d="m 16.006092,176.52059 c 0,-0.52306 -0.857847,-2.03695 -2.115064,-3.73256 -2.641532,-3.56263 -3.320519,-5.67312 -3.102264,-9.64274 0.208279,-3.78818 1.343522,-6.18843 4.160394,-8.79636 2.877309,-2.66388 5.183129,-3.50581 9.170822,-3.34856 2.390375,0.0943 3.394562,0.3127 4.950648,1.07693 2.508916,1.23218 5.04858,3.78211 6.234574,6.25977 1.244821,2.60055 1.537935,7.16626 0.634658,9.88577 -0.551447,1.66025 -3.70197,6.36056 -4.457009,6.64948 -0.169024,0.0647 -0.307315,0.65998 -0.307315,1.32291 v 1.20533 h -7.584722 -7.584722 z"
         id="path172660" />
      <path
         style="fill:#fcfcfc;stroke-width:0.352778"
         d="m 16.006092,176.48371 c 0,-0.57302 -0.791621,-1.96741 -2.110898,-3.71823 -2.641464,-3.50549 -3.326366,-5.62721 -3.105436,-9.62019 0.19741,-3.56788 1.493104,-6.32484 4.133014,-8.79417 2.795145,-2.61453 4.452268,-3.23251 8.668042,-3.23251 2.880248,0 3.833232,0.14111 5.191911,0.7688 2.338199,1.0802 5.092008,3.78362 6.398108,6.28102 1.039558,1.98775 1.10998,2.35741 1.10998,5.82657 0,3.31113 -0.101166,3.91015 -0.953434,5.64546 -0.524388,1.06771 -1.516576,2.55611 -2.204861,3.30754 -0.688284,0.75143 -1.251427,1.50504 -1.251427,1.67468 0,0.16964 -0.15875,0.30843 -0.352778,0.30843 -0.194027,0 -0.352777,0.55563 -0.352777,1.23472 v 1.23473 h -7.584722 -7.584722 z"
         id="path172658" />
      <path
         style="fill:#fafafa;stroke-width:0.352778"
         d="m 16.006092,176.16583 c 0,-0.67909 -0.15875,-1.23472 -0.352778,-1.23472 -0.194028,0 -0.352778,-0.13879 -0.352778,-0.30843 0,-0.16964 -0.563142,-0.92325 -1.251427,-1.67468 -0.688285,-0.75143 -1.680472,-2.23983 -2.204861,-3.30754 -0.843078,-1.7166 -0.953434,-2.34962 -0.953434,-5.46907 0,-3.0892 0.117542,-3.77856 0.945465,-5.54499 1.248918,-2.66464 3.674091,-5.20232 6.188563,-6.47565 1.848963,-0.93631 2.365723,-1.03214 5.565972,-1.03214 3.200249,0 3.717009,0.0958 5.565972,1.03214 2.514472,1.27333 4.939644,3.81101 6.188563,6.47565 0.827923,1.76643 0.945464,2.45579 0.945464,5.54499 0,3.12118 -0.110009,3.7514 -0.95448,5.46805 -0.524964,1.06716 -1.675216,2.73403 -2.556115,3.70417 -1.208295,1.3307 -1.602009,2.04546 -1.603159,2.91042 l -0.0015,1.14653 h -7.584722 -7.584722 z m 8.466666,-8.46666 V 163.995 h -0.881944 -0.881945 v 3.70417 3.70416 h 0.881945 0.881944 z"
         id="path172656" />
      <path
         style="fill:#f8f8f8;stroke-width:0.352778"
         d="m 16.006092,176.21963 c 0,-0.90858 -0.366426,-1.57979 -1.58885,-2.91042 -0.873867,-0.95122 -2.024804,-2.60261 -2.557638,-3.66977 -0.862935,-1.72827 -0.96879,-2.32641 -0.96879,-5.47423 0,-3.27384 0.08439,-3.70546 1.146504,-5.86408 1.359154,-2.7623 3.572265,-4.92944 6.376431,-6.24399 1.703071,-0.79837 2.476228,-0.93853 5.177065,-0.93853 2.700836,0 3.473994,0.14016 5.177065,0.93853 2.803044,1.31402 5.017193,3.48175 6.37643,6.24275 1.062305,2.15785 1.146499,2.58851 1.146433,5.86408 -6.5e-5,3.14973 -0.105756,3.74676 -0.969328,5.47547 -0.533091,1.06716 -1.683996,2.71855 -2.557567,3.66977 -1.221813,1.33042 -1.588311,2.00199 -1.588311,2.91042 v 1.18093 h -7.584722 -7.584722 z m 8.466666,-8.52046 V 163.995 h -0.881944 -0.881945 v 3.70417 3.70416 h 0.881945 0.881944 z"
         id="path172654" />
      <path
         style="fill:#f6f6f6;stroke-width:0.352778"
         d="m 16.006092,176.22072 c 0,-0.9155 -0.404558,-1.64214 -1.805712,-3.24332 -2.701116,-3.08672 -3.257672,-4.57928 -3.285954,-8.81219 -0.02203,-3.29789 0.05297,-3.68961 1.122892,-5.86408 1.359154,-2.7623 3.572265,-4.92944 6.376431,-6.24399 1.703071,-0.79837 2.476228,-0.93853 5.177065,-0.93853 2.700836,0 3.473994,0.14016 5.177065,0.93853 2.803044,1.31402 5.017193,3.48175 6.37643,6.24275 1.062305,2.15785 1.146499,2.58851 1.146433,5.86408 -6.4e-5,3.14178 -0.107295,3.75112 -0.963563,5.47547 -0.52992,1.06716 -1.673614,2.65466 -2.541543,3.52778 -1.293394,1.30114 -1.580943,1.82614 -1.594076,2.91042 l -0.01602,1.32292 h -7.584722 -7.584722 z m 8.466666,-8.52155 V 163.995 h -0.881944 -0.881945 v 3.70417 3.70416 h 0.881945 0.881944 z"
         id="path172652" />
      <path
         style="fill:#f4f4f4;stroke-width:0.352778"
         d="m 16.006092,176.20399 c 0,-0.90753 -0.365227,-1.61056 -1.511989,-2.91042 -2.06175,-2.337 -2.574656,-3.21734 -3.271886,-5.61572 -1.7943232,-6.17226 1.279707,-12.84935 7.191532,-15.62071 1.703071,-0.79837 2.476228,-0.93853 5.177065,-0.93853 2.700836,0 3.473994,0.14016 5.177065,0.93853 2.803044,1.31402 5.017193,3.48175 6.37643,6.24275 1.062281,2.1578 1.146504,2.58858 1.146504,5.86408 0,3.17481 -0.10092,3.7342 -0.989964,5.48725 -0.54448,1.07363 -1.688207,2.66113 -2.541615,3.52778 -1.264969,1.28459 -1.554611,1.82014 -1.567674,2.89864 l -0.01602,1.32292 h -7.584722 -7.584722 z m 8.466666,-8.50482 V 163.995 h -0.881944 -0.881945 v 3.70417 3.70416 h 0.881945 0.881944 z"
         id="path172650" />
      <path
         style="fill:#f2f2f2;stroke-width:0.352778"
         d="m 16.006092,176.20399 c 0,-0.92204 -0.365564,-1.60317 -1.593348,-2.96876 -0.876342,-0.9747 -2.027279,-2.69843 -2.557639,-3.83051 -0.838906,-1.79069 -0.964291,-2.4951 -0.964291,-5.41739 0,-3.07682 0.09633,-3.55471 1.146504,-5.68768 1.359255,-2.76075 3.573612,-4.9286 6.376431,-6.24251 1.703071,-0.79837 2.476228,-0.93853 5.177065,-0.93853 2.700836,0 3.473994,0.14016 5.177065,0.93853 2.803044,1.31402 5.017193,3.48175 6.37643,6.24275 1.050139,2.13314 1.146504,2.6112 1.146504,5.68769 0,2.9276 -0.125668,3.63059 -0.978856,5.47574 -0.538372,1.16432 -1.682098,2.83119 -2.541616,3.70417 -1.275706,1.29569 -1.565701,1.83023 -1.578781,2.91015 l -0.01602,1.32292 H 23.590814 16.006092 Z M 24.472758,167.17 v -4.23333 h -0.881944 -0.881945 v 4.23333 4.23333 h 0.881945 0.881944 z"
         id="path172648" />
      <path
         style="fill:#f0f0f0;stroke-width:0.352778"
         d="m 16.006092,176.20399 c 0,-0.92204 -0.365564,-1.60317 -1.593348,-2.96876 -0.876342,-0.9747 -2.025642,-2.69843 -2.554,-3.83051 -0.832997,-1.78482 -0.961134,-2.50466 -0.96429,-5.41714 -0.0033,-3.08032 0.09142,-3.5519 1.142864,-5.68769 1.35931,-2.76115 3.573577,-4.92891 6.376431,-6.24252 1.702684,-0.79799 2.476841,-0.93833 5.177065,-0.93853 2.701131,-2e-4 3.473808,0.13985 5.177065,0.9383 2.802818,1.31391 5.017176,3.48176 6.37643,6.24251 1.050174,2.13297 1.146504,2.61086 1.146504,5.68768 0,2.94253 -0.12367,3.62667 -0.997327,5.51715 -0.54853,1.18695 -1.699468,2.84719 -2.557639,3.68943 -1.301663,1.27748 -1.560311,1.75307 -1.560311,2.86899 v 1.33766 H 23.590814 16.006092 Z M 24.472758,167.17 v -4.23333 h -0.881944 -0.881945 v 4.23333 4.23333 h 0.881945 0.881944 z"
         id="path172646" />
      <path
         style="fill:#eeeeee;stroke-width:0.352778"
         d="m 16.241277,177.16537 c -0.129352,-0.12935 -0.235185,-0.65478 -0.235185,-1.16761 0,-0.60001 -0.585957,-1.61664 -1.643606,-2.85162 -2.643976,-3.0873 -3.456119,-5.19957 -3.450688,-8.97475 0.0035,-2.43647 0.184664,-3.62633 0.778813,-5.11528 1.129522,-2.83061 3.521311,-5.38286 6.349807,-6.7758 2.139497,-1.05363 2.655048,-1.1617 5.542164,-1.1617 2.709749,0 3.481024,0.1396 5.185297,0.93853 2.821889,1.32285 5.031867,3.49201 6.373498,6.25578 1.027089,2.11582 1.132229,2.63967 1.140417,5.68208 0.0078,2.90909 -0.115759,3.61761 -0.936445,5.3686 -0.520005,1.10946 -1.670943,2.7928 -2.557639,3.74075 -1.005327,1.07477 -1.612174,2.04839 -1.612174,2.58654 0,1.62125 -0.401956,1.70967 -7.77287,1.70967 -3.809412,0 -7.032037,-0.10584 -7.161389,-0.23519 z M 24.472758,167.17 v -4.23333 h -0.881944 -0.881945 v 4.23333 4.23333 h 0.881945 0.881944 z"
         id="path172644" />
      <path
         style="fill:#ececec;stroke-width:0.352778"
         d="m 16.220224,176.84254 c -0.117773,-0.30691 -0.214132,-0.83234 -0.214132,-1.16762 0,-0.33527 -0.739623,-1.47323 -1.643606,-2.52878 -3.378687,-3.9452 -4.3997724,-8.33888 -2.997975,-12.90014 2.390648,-7.77885 10.682313,-11.45784 17.859812,-7.92437 2.743251,1.35049 5.15328,3.94147 6.264176,6.73448 1.185572,2.98077 1.121285,7.60973 -0.14315,10.30749 -0.520005,1.10946 -1.670943,2.7928 -2.557639,3.74075 -1.005327,1.07477 -1.612174,2.04839 -1.612174,2.58654 0,1.62177 -0.400684,1.70967 -7.793923,1.70967 -6.009555,0 -6.976159,-0.0753 -7.161389,-0.55802 z m 8.252534,-9.84893 v -4.40972 h -0.881944 -0.881945 v 4.40972 4.40972 h 0.881945 0.881944 z"
         id="path172642" />
      <path
         style="fill:#e8e8e8;stroke-width:0.352778"
         d="m 16.220224,176.84254 c -0.117773,-0.30691 -0.22192,-0.90223 -0.231439,-1.32292 -0.0095,-0.42069 -0.649044,-1.3999 -1.421167,-2.17601 -7.789991,-7.83023 -2.777432,-21.53828 8.162013,-22.32099 11.645919,-0.83326 18.145364,13.43576 10.058079,22.08173 -1.005327,1.07477 -1.612174,2.04839 -1.612174,2.58654 0,1.62177 -0.400684,1.70967 -7.793923,1.70967 -6.009555,0 -6.976159,-0.0753 -7.161389,-0.55802 z m 8.252534,-9.84893 v -4.40972 h -0.881944 -0.881945 v 4.40972 4.40972 h 0.881945 0.881944 z"
         id="path172640" />
      <path
         style="fill:#e7e7e7;stroke-width:0.352778"
         d="m 16.220224,176.84254 c -0.117773,-0.30691 -0.22192,-0.90223 -0.231439,-1.32292 -0.0095,-0.42069 -0.649044,-1.3999 -1.421167,-2.17601 -3.171364,-3.18774 -4.483758,-8.09438 -3.352199,-12.53284 1.847321,-7.24599 9.391954,-11.52455 16.194753,-9.18405 9.201744,3.16587 12.011004,14.38591 5.377538,21.47763 -1.005327,1.07477 -1.612174,2.04839 -1.612174,2.58654 0,1.62177 -0.400684,1.70967 -7.793923,1.70967 -6.009555,0 -6.976159,-0.0753 -7.161389,-0.55802 z m 8.252534,-9.84893 v -4.40972 h -0.881944 -0.881945 v 4.40972 4.40972 h 0.881945 0.881944 z"
         id="path172638" />
      <path
         style="fill:#e7e7e7;stroke-width:0.352778"
         d="m 16.220224,176.84254 c -0.117773,-0.30691 -0.22192,-0.90223 -0.231439,-1.32292 -0.0095,-0.42069 -0.649044,-1.3999 -1.421167,-2.17601 -3.171364,-3.18774 -4.483758,-8.09438 -3.352199,-12.53284 1.847321,-7.24599 9.391954,-11.52455 16.194753,-9.18405 9.201744,3.16587 12.011004,14.38591 5.377538,21.47763 -1.005327,1.07477 -1.612174,2.04839 -1.612174,2.58654 0,1.62177 -0.400684,1.70967 -7.793923,1.70967 -6.009555,0 -6.976159,-0.0753 -7.161389,-0.55802 z m 8.252534,-10.20171 v -4.7625 h -0.881944 -0.881945 v 4.7625 4.7625 h 0.881945 0.881944 z"
         id="path172636" />
      <path
         style="fill:#e5e5e5;stroke-width:0.352778"
         d="m 16.220224,176.84254 c -0.117773,-0.30691 -0.214132,-0.88576 -0.214132,-1.28634 0,-0.40057 -0.725479,-1.5039 -1.612175,-2.45185 -6.5759352,-7.03021 -3.781575,-18.34438 5.296647,-21.44575 2.635169,-0.90024 5.165294,-0.91069 7.719608,-0.0319 9.201744,3.16587 12.011004,14.38591 5.377538,21.47763 -1.005327,1.07477 -1.612174,2.04839 -1.612174,2.58654 0,1.62177 -0.400684,1.70967 -7.793923,1.70967 -6.009555,0 -6.976159,-0.0753 -7.161389,-0.55802 z m 8.252534,-10.20171 v -4.7625 h -0.881944 -0.881945 v 4.7625 4.7625 h 0.881945 0.881944 z"
         id="path172634" />
      <path
         style="fill:#e2e2e2;stroke-width:0.352778"
         d="m 16.220224,176.84254 c -0.117773,-0.30691 -0.214132,-0.91077 -0.214132,-1.34191 0,-0.43816 -0.557805,-1.32008 -1.264748,-1.99962 -2.394974,-2.30215 -4.00639,-6.11694 -4.021408,-9.52009 -0.01638,-3.71093 2.237876,-8.21052 5.200524,-10.38047 7.065259,-5.17485 16.544872,-2.29475 19.698501,5.98483 0.474145,1.24482 0.668851,2.64629 0.661653,4.7625 -0.01235,3.63068 -0.989409,6.08013 -3.492904,8.75657 -1.005327,1.07477 -1.612174,2.04839 -1.612174,2.58654 0,1.62177 -0.400684,1.70967 -7.793923,1.70967 -6.009555,0 -6.976159,-0.0753 -7.161389,-0.55802 z m 8.252534,-10.20171 v -4.7625 h -0.881944 -0.881945 v 4.7625 4.7625 h 0.881945 0.881944 z"
         id="path172632" />
      <path
         style="fill:#e0e0e0;stroke-width:0.352778"
         d="m 16.220224,176.84254 c -0.117773,-0.30691 -0.214132,-0.88576 -0.214132,-1.28634 0,-0.40057 -0.699646,-1.47629 -1.554768,-2.39048 -1.920026,-2.05266 -2.821418,-3.78684 -3.383344,-6.50915 -1.022342,-4.95287 1.145761,-10.51434 5.181377,-13.29092 3.45575,-2.37761 7.486995,-2.98976 11.241707,-1.70705 5.63189,1.92401 8.810557,6.51295 8.78955,12.68918 -0.01235,3.63068 -0.989409,6.08013 -3.492904,8.75657 -1.005327,1.07477 -1.612174,2.04839 -1.612174,2.58654 0,1.62177 -0.400684,1.70967 -7.793923,1.70967 -6.009555,0 -6.976159,-0.0753 -7.161389,-0.55802 z m 8.252534,-10.20171 v -4.7625 h -0.881944 -0.881945 v 4.7625 4.7625 h 0.881945 0.881944 z"
         id="path172630" />
      <path
         style="fill:#dedede;stroke-width:0.352778"
         d="m 16.220224,176.84254 c -0.117773,-0.30691 -0.214132,-0.88576 -0.214132,-1.28634 0,-0.40057 -0.699646,-1.47629 -1.554768,-2.39048 -1.920026,-2.05266 -2.821418,-3.78684 -3.383344,-6.50915 -1.3392779,-6.4883 2.338932,-12.84012 8.703475,-15.02985 3.644288,-1.25382 7.73807,-0.61598 11.160816,1.73893 1.863398,1.28206 3.156328,2.92801 4.40472,5.60739 0.802074,1.72147 0.942727,2.49705 0.942727,5.19835 0,2.69896 -0.140926,3.47745 -0.939917,5.19221 -0.516954,1.10946 -1.665395,2.7928 -2.552091,3.74075 -0.886696,0.94795 -1.612174,1.99533 -1.612174,2.32751 0,0.33218 -0.164336,0.91103 -0.36519,1.28633 -0.342231,0.63947 -0.805609,0.68237 -7.37059,0.68237 -6.062574,0 -7.034219,-0.0751 -7.219532,-0.55802 z m 8.252534,-10.3781 v -4.93888 h -0.881944 -0.881945 v 4.93888 4.93889 h 0.881945 0.881944 z"
         id="path172628" />
      <path
         style="fill:#dadada;stroke-width:0.352778"
         d="m 16.220224,176.84254 c -0.117773,-0.30691 -0.214132,-0.87997 -0.214132,-1.27346 0,-0.39349 -0.782542,-1.57166 -1.738983,-2.61816 -2.403078,-2.62935 -3.327155,-5.11568 -3.328581,-8.95592 -8.7e-4,-2.34133 0.171376,-3.38525 0.785815,-4.7625 1.752006,-3.92709 4.258062,-6.30215 8.012825,-7.59398 7.569493,-2.60429 15.732967,2.91376 16.601303,11.22154 0.394954,3.77872 -0.86253,7.37035 -3.608168,10.30566 -0.855122,0.91419 -1.554767,1.93396 -1.554767,2.26614 0,0.33218 -0.164336,0.91103 -0.36519,1.28633 -0.342231,0.63947 -0.805609,0.68237 -7.37059,0.68237 -6.062574,0 -7.034219,-0.0751 -7.219532,-0.55802 z m 8.252534,-10.3781 v -4.93888 h -0.881944 -0.881945 v 4.93888 4.93889 h 0.881945 0.881944 z"
         id="path172626" />
      <path
         style="fill:#d8d8d8;stroke-width:0.352778"
         d="m 16.429425,176.97722 c -0.232833,-0.23283 -0.423333,-0.80589 -0.423333,-1.27345 0,-0.52601 -0.663,-1.57555 -1.738983,-2.75285 -2.397735,-2.6235 -3.324959,-5.11354 -3.336393,-8.9598 -0.0078,-2.63202 0.126336,-3.29154 1.087278,-5.34503 1.388231,-2.96658 3.419813,-5.00184 6.404185,-6.41579 2.023909,-0.95889 2.734314,-1.11169 5.168635,-1.11169 2.43432,0 3.144726,0.1528 5.168635,1.11169 2.979919,1.41184 5.0109,3.44404 6.415819,6.41968 0.980459,2.07662 1.105305,2.69119 1.085822,5.34502 -0.02825,3.84778 -0.962122,6.34696 -3.346571,8.95592 -0.956441,1.0465 -1.744032,2.19797 -1.750203,2.55882 -0.0062,0.36085 -0.222109,0.93391 -0.479863,1.27345 -0.417309,0.54974 -1.200528,0.61737 -7.150169,0.61737 -4.726372,0 -6.805402,-0.12388 -7.104859,-0.42334 z m 8.043333,-10.51278 v -4.93888 h -0.881944 -0.881945 v 4.93888 4.93889 h 0.881945 0.881944 z"
         id="path172624" />
      <path
         style="fill:#d6d6d6;stroke-width:0.352778"
         d="m 16.429425,176.97722 c -0.232833,-0.23283 -0.423333,-0.80589 -0.423333,-1.27345 0,-0.52601 -0.663,-1.57555 -1.738983,-2.75285 -2.397735,-2.6235 -3.324959,-5.11354 -3.336393,-8.9598 -0.0078,-2.63202 0.126336,-3.29154 1.087278,-5.34503 1.388231,-2.96658 3.419813,-5.00184 6.404185,-6.41579 2.023909,-0.95889 2.734314,-1.11169 5.168635,-1.11169 2.43432,0 3.144726,0.1528 5.168635,1.11169 2.979919,1.41184 5.0109,3.44404 6.415819,6.41968 0.980459,2.07662 1.105305,2.69119 1.085822,5.34502 -0.02799,3.81203 -0.918735,6.19773 -3.31994,8.89182 -0.971088,1.08953 -1.770663,2.27303 -1.776834,2.62999 -0.0062,0.35696 -0.222109,0.92684 -0.479863,1.26638 -0.417309,0.54974 -1.200528,0.61737 -7.150169,0.61737 -4.726372,0 -6.805402,-0.12388 -7.104859,-0.42334 z m 8.043333,-10.82146 v -5.24757 h -0.881944 -0.881945 v 5.24757 5.24757 h 0.881945 0.881944 z"
         id="path172622" />
      <path
         style="fill:#d4d4d4;stroke-width:0.352778"
         d="m 16.371282,176.71819 c -0.200855,-0.3753 -0.36519,-0.97916 -0.36519,-1.34191 0,-0.36274 -0.562953,-1.20518 -1.251006,-1.87206 -3.967751,-3.8457 -5.0415379,-9.99569 -2.634063,-15.08629 1.307894,-2.76554 3.386528,-4.80673 6.301156,-6.18763 2.023909,-0.95889 2.734314,-1.11169 5.168635,-1.11169 2.43432,0 3.144726,0.1528 5.168635,1.11169 5.77653,2.73682 8.752796,8.90307 7.207902,14.93338 -0.630113,2.45957 -2.014034,4.88537 -3.719003,6.51884 -0.590047,0.5653 -1.072812,1.37039 -1.072812,1.78908 0,0.4187 -0.290313,1.024 -0.645139,1.34511 -0.551729,0.49931 -1.597052,0.58385 -7.219532,0.58385 -6.138858,0 -6.598586,-0.0452 -6.939583,-0.68237 z m 8.101476,-10.56243 v -5.24757 h -0.881944 -0.881945 v 5.24757 5.24757 h 0.881945 0.881944 z"
         id="path172620" />
      <path
         style="fill:#d4d4d4;stroke-width:0.352778"
         d="m 16.371282,176.71819 c -0.200855,-0.3753 -0.36519,-0.97916 -0.36519,-1.34191 0,-0.36274 -0.562953,-1.20518 -1.251006,-1.87206 -3.967751,-3.8457 -5.0415379,-9.99569 -2.634063,-15.08629 1.307894,-2.76554 3.386528,-4.80673 6.301156,-6.18763 2.023909,-0.95889 2.734314,-1.11169 5.168635,-1.11169 2.43432,0 3.144726,0.1528 5.168635,1.11169 5.77653,2.73682 8.752796,8.90307 7.207902,14.93338 -0.630113,2.45957 -2.014034,4.88537 -3.719003,6.51884 -0.590047,0.5653 -1.072812,1.37039 -1.072812,1.78908 0,0.4187 -0.290313,1.024 -0.645139,1.34511 -0.551729,0.49931 -1.597052,0.58385 -7.219532,0.58385 -6.138858,0 -6.598586,-0.0452 -6.939583,-0.68237 z m 8.101476,-10.78291 v -5.46806 h -0.881944 -0.881945 v 5.46806 5.46805 h 0.881945 0.881944 z"
         id="path172618" />
      <path
         style="fill:#d3d3d3;stroke-width:0.352778"
         d="m 16.371282,176.71819 c -0.200855,-0.3753 -0.36519,-0.97808 -0.36519,-1.33951 0,-0.36144 -0.615911,-1.25858 -1.368692,-1.99365 -2.897884,-2.82971 -4.345432,-7.40638 -3.608147,-11.40777 0.835759,-4.53582 3.326489,-7.82039 7.390323,-9.74574 2.026693,-0.9602 2.736271,-1.11291 5.171238,-1.11291 2.43432,0 3.144726,0.1528 5.168635,1.11169 4.261696,2.01912 7.048954,5.90373 7.542452,10.51195 0.414514,3.87067 -1.187508,8.19442 -4.053553,10.94027 -0.590047,0.5653 -1.072812,1.37039 -1.072812,1.78908 0,0.4187 -0.290313,1.024 -0.645139,1.34511 -0.551729,0.49931 -1.597052,0.58385 -7.219532,0.58385 -6.138858,0 -6.598586,-0.0452 -6.939583,-0.68237 z m 8.101476,-10.78291 v -5.46806 h -0.881944 -0.881945 v 5.46806 5.46805 h 0.881945 0.881944 z"
         id="path172616" />
      <path
         style="fill:#d0d0d0;stroke-width:0.352778"
         d="m 16.371282,176.71819 c -0.200855,-0.3753 -0.36519,-0.94728 -0.36519,-1.27108 0,-0.3238 -0.701701,-1.36918 -1.559336,-2.32308 -6.1463329,-6.8362 -4.210716,-17.01534 3.97282,-20.89251 2.026693,-0.9602 2.736271,-1.11291 5.171238,-1.11291 2.43432,0 3.144726,0.1528 5.168635,1.11169 4.178177,1.97955 6.611382,5.23921 7.416783,9.93595 0.355185,2.07128 0.329104,2.79061 -0.175294,4.83457 -0.632102,2.56145 -2.006731,5.00906 -3.75259,6.6817 -0.590047,0.5653 -1.072812,1.37039 -1.072812,1.78908 0,0.4187 -0.290313,1.024 -0.645139,1.34511 -0.551729,0.49931 -1.597052,0.58385 -7.219532,0.58385 -6.138858,0 -6.598586,-0.0452 -6.939583,-0.68237 z m 8.101476,-10.78291 v -5.46806 h -0.881944 -0.881945 v 5.46806 5.46805 h 0.881945 0.881944 z"
         id="path172614" />
      <path
         style="fill:#cecece;stroke-width:0.352778"
         d="m 16.371282,176.71819 c -0.200855,-0.3753 -0.36519,-0.94728 -0.36519,-1.27108 0,-0.3238 -0.701701,-1.36918 -1.559336,-2.32308 -6.1499542,-6.84023 -4.192888,-16.99952 4.02878,-20.91373 1.970947,-0.93834 2.689497,-1.09169 5.115278,-1.09169 2.434967,0 3.144545,0.15271 5.171238,1.11291 4.126513,1.95504 6.618397,5.29408 7.41418,9.93473 0.355185,2.07128 0.329104,2.79061 -0.175294,4.83457 -0.632102,2.56145 -2.006731,5.00906 -3.75259,6.6817 -0.590047,0.5653 -1.072812,1.37039 -1.072812,1.78908 0,0.4187 -0.290313,1.024 -0.645139,1.34511 -0.551729,0.49931 -1.597052,0.58385 -7.219532,0.58385 -6.138858,0 -6.598586,-0.0452 -6.939583,-0.68237 z m 8.101476,-10.78291 v -5.46806 h -0.881944 -0.881945 v 5.46806 5.46805 h 0.881945 0.881944 z"
         id="path172612" />
      <path
         style="fill:#cccccc;stroke-width:0.352778"
         d="m 16.371282,176.71819 c -0.200855,-0.3753 -0.36519,-0.94728 -0.36519,-1.27108 0,-0.3238 -0.701701,-1.36918 -1.559336,-2.32308 -2.959683,-3.29188 -4.089341,-7.0376 -3.383855,-11.22019 0.729621,-4.32568 3.342915,-7.74122 7.412635,-9.68821 1.975297,-0.945 2.684143,-1.09702 5.115278,-1.09702 2.42578,0 3.144331,0.15335 5.115277,1.09169 4.16498,1.98288 6.677025,5.33085 7.470141,9.95595 0.355185,2.07128 0.329104,2.79061 -0.175294,4.83457 -0.632102,2.56145 -2.006731,5.00906 -3.75259,6.6817 -0.590047,0.5653 -1.072812,1.37039 -1.072812,1.78908 0,0.4187 -0.290313,1.024 -0.645139,1.34511 -0.551729,0.49931 -1.597052,0.58385 -7.219532,0.58385 -6.138858,0 -6.598586,-0.0452 -6.939583,-0.68237 z m 8.101476,-10.9593 v -5.64445 h -0.881944 -0.881945 v 5.64445 5.64444 h 0.881945 0.881944 z"
         id="path172610" />
      <path
         style="fill:#cacaca;stroke-width:0.352778"
         d="m 16.371282,176.71819 c -0.200855,-0.3753 -0.36519,-0.94728 -0.36519,-1.27108 0,-0.3238 -0.701701,-1.36918 -1.559336,-2.32308 -4.8180154,-5.35879 -4.8219363,-12.70948 -0.0096,-17.90743 2.677577,-2.8921 5.355228,-4.08985 9.153609,-4.09452 2.429971,-0.003 3.140925,0.14826 5.115277,1.08822 4.11679,1.95994 6.696976,5.44125 7.497793,10.11639 0.6665,3.891 -0.921025,8.44858 -3.955536,11.35583 -0.590047,0.5653 -1.072812,1.37039 -1.072812,1.78908 0,0.4187 -0.290313,1.024 -0.645139,1.34511 -0.551729,0.49931 -1.597052,0.58385 -7.219532,0.58385 -6.138858,0 -6.598586,-0.0452 -6.939583,-0.68237 z m 8.101476,-10.9593 v -5.64445 h -0.881944 -0.881945 v 5.64445 5.64444 h 0.881945 0.881944 z"
         id="path172608" />
      <path
         style="fill:#c8c8c8;stroke-width:0.352778"
         d="m 16.371282,176.71819 c -0.200855,-0.3753 -0.36519,-0.94728 -0.36519,-1.27108 0,-0.3238 -0.701701,-1.36918 -1.559336,-2.32308 -4.8180154,-5.35879 -4.8219363,-12.70948 -0.0096,-17.90743 2.680229,-2.89497 5.356429,-4.09105 9.153609,-4.09105 2.365962,0 3.180502,0.16489 5.038381,1.01992 5.335136,2.45532 8.555417,8.51491 7.515288,14.14149 -0.498421,2.69621 -1.408296,4.52013 -3.372661,6.76079 -0.877957,1.00145 -1.596286,2.12778 -1.596286,2.50297 0,0.37518 -0.290313,0.94488 -0.645139,1.26599 -0.551729,0.49931 -1.597052,0.58385 -7.219532,0.58385 -6.138858,0 -6.598586,-0.0452 -6.939583,-0.68237 z m 8.101476,-10.9593 v -5.64445 h -0.881944 -0.881945 v 5.64445 5.64444 h 0.881945 0.881944 z"
         id="path172606" />
      <path
         style="fill:#c4c4c4;stroke-width:0.352778"
         d="m 16.371282,176.71819 c -0.200855,-0.3753 -0.36519,-0.94728 -0.36519,-1.27108 0,-0.3238 -0.701701,-1.36918 -1.559336,-2.32308 -4.765542,-5.30043 -4.8174824,-12.65764 -0.125603,-17.79131 3.375318,-3.69313 8.06876,-5.17564 12.310082,-3.88835 5.363125,1.62777 8.90324,5.78673 9.632122,11.31591 0.468756,3.5559 -0.757465,7.16885 -3.491535,10.28747 -0.877957,1.00145 -1.596286,2.12778 -1.596286,2.50297 0,0.37518 -0.290313,0.94488 -0.645139,1.26599 -0.551729,0.49931 -1.597052,0.58385 -7.219532,0.58385 -6.138858,0 -6.598586,-0.0452 -6.939583,-0.68237 z m 8.101476,-11.31208 v -5.99722 h -0.881944 -0.881945 v 5.99722 5.99722 h 0.881945 0.881944 z"
         id="path172604" />
      <path
         style="fill:#c1c1c1;stroke-width:0.352778"
         d="m 16.371282,176.71819 c -0.200855,-0.3753 -0.36519,-0.94728 -0.36519,-1.27108 0,-0.3238 -0.694651,-1.36134 -1.543668,-2.30565 -4.7211459,-5.25105 -4.7989343,-12.78134 -0.183754,-17.78822 5.343614,-5.79713 13.47186,-5.71788 18.777341,0.18309 2.194055,2.44032 3.15445,5.05104 3.17966,8.64354 0.01718,2.44878 -0.125799,3.13893 -1.059761,5.11527 -0.593795,1.25652 -1.736795,3.02332 -2.54,3.92622 -0.803206,0.90289 -1.460374,1.94985 -1.460374,2.32657 0,0.37672 -0.290313,0.94767 -0.645139,1.26878 -0.551729,0.49931 -1.597052,0.58385 -7.219532,0.58385 -6.138858,0 -6.598586,-0.0452 -6.939583,-0.68237 z m 8.101476,-11.31208 v -5.99722 h -0.881944 -0.881945 v 5.99722 5.99722 h 0.881945 0.881944 z"
         id="path172602" />
      <path
         style="fill:#bebebe;stroke-width:0.352778"
         d="m 16.371282,176.71819 c -0.200855,-0.3753 -0.36519,-0.95286 -0.36519,-1.28346 0,-0.33061 -0.64857,-1.30472 -1.441266,-2.16469 -0.792697,-0.85998 -1.927759,-2.6032 -2.522361,-3.87384 -0.933562,-1.99498 -1.079509,-2.70168 -1.069473,-5.17864 0.01477,-3.64574 0.956303,-6.23839 3.152625,-8.68123 5.374906,-5.97819 13.555488,-5.97819 18.930394,0 2.194055,2.44032 3.15445,5.05104 3.17966,8.64354 0.01718,2.44878 -0.125799,3.13893 -1.059761,5.11527 -0.593795,1.25652 -1.736795,3.02332 -2.54,3.92622 -0.803206,0.90289 -1.460374,1.94985 -1.460374,2.32657 0,0.37672 -0.290313,0.94767 -0.645139,1.26878 -0.551729,0.49931 -1.597052,0.58385 -7.219532,0.58385 -6.138858,0 -6.598586,-0.0452 -6.939583,-0.68237 z m 8.101476,-11.81185 c 0,-4.88037 -0.109725,-6.53526 -0.440972,-6.65081 -1.222902,-0.42657 -1.322917,0.0769 -1.322917,6.65916 v 6.48864 h 0.881945 0.881944 z"
         id="path172600" />
      <path
         style="fill:#bcbcbc;stroke-width:0.352778"
         d="m 16.594055,177.16537 c -0.129352,-0.12935 -0.235185,-0.62883 -0.235185,-1.10994 0,-0.55198 -0.59424,-1.51005 -1.610438,-2.59645 -0.88574,-0.94693 -2.100178,-2.76824 -2.69875,-4.04736 -0.941345,-2.01161 -1.086743,-2.71302 -1.07669,-5.19406 0.01477,-3.64574 0.956303,-6.23839 3.152625,-8.68123 5.352745,-5.95354 13.577649,-5.95354 18.930394,0 2.218026,2.46698 3.159377,5.05207 3.161591,8.6822 0.0015,2.45458 -0.151035,3.19401 -1.055206,5.11527 -0.581327,1.23526 -1.795561,3.063 -2.698298,4.06164 -0.902737,0.99865 -1.64134,2.11784 -1.64134,2.48709 0,1.39837 -0.584876,1.51803 -7.420092,1.51803 -3.615385,0 -6.679259,-0.10584 -6.808611,-0.23519 z m 7.878703,-12.25903 c 0,-4.88037 -0.109725,-6.53526 -0.440972,-6.65081 -1.222902,-0.42657 -1.322917,0.0769 -1.322917,6.65916 v 6.48864 h 0.881945 0.881944 z"
         id="path172598" />
      <path
         style="fill:#bbbbbb;stroke-width:0.352778"
         d="m 16.594055,177.16537 c -0.129352,-0.12935 -0.235185,-0.62883 -0.235185,-1.10994 0,-0.54767 -0.582508,-1.49751 -1.55782,-2.5402 -7.0514484,-7.53856 -4.09426,-19.08498 5.644562,-22.03932 0.95375,-0.28933 1.853153,-0.52777 1.998674,-0.52987 0.145521,-0.002 0.264583,4.59993 0.264583,10.22674 v 10.23055 h 0.881945 0.881944 v -10.23055 c 0,-5.62681 0.119063,-10.22884 0.264584,-10.22674 0.788176,0.0114 3.930596,1.17185 5.221028,1.9281 2.14186,1.25521 4.585051,4.13575 5.48225,6.46362 1.206966,3.13158 1.097254,7.0733 -0.278224,9.99604 -0.581327,1.23526 -1.795561,3.063 -2.698298,4.06164 -0.902737,0.99865 -1.64134,2.11784 -1.64134,2.48709 0,1.39837 -0.584876,1.51803 -7.420092,1.51803 -3.615385,0 -6.679259,-0.10584 -6.808611,-0.23519 z"
         id="path172596" />
      <path
         style="fill:#b8b8b8;stroke-width:0.352778"
         d="m 16.594055,177.16537 c -0.129352,-0.12935 -0.235185,-0.62883 -0.235185,-1.10994 0,-0.54767 -0.582508,-1.49751 -1.55782,-2.5402 -7.0514484,-7.53856 -4.09426,-19.08498 5.644562,-22.03932 0.95375,-0.28933 1.853153,-0.52777 1.998674,-0.52987 0.145521,-0.002 0.264583,4.59993 0.264583,10.22674 v 10.23055 h 0.881945 0.881944 v -10.23055 c 0,-5.62681 0.119063,-10.22884 0.264584,-10.22674 0.781537,0.0113 3.925087,1.16862 5.193965,1.91224 1.934508,1.13369 4.31527,3.75646 5.175871,5.70199 2.240972,5.06609 1.220327,10.69382 -2.690218,14.83358 -0.876811,0.92821 -1.594202,2.01894 -1.594202,2.42384 0,1.47062 -0.526164,1.58287 -7.420092,1.58287 -3.615385,0 -6.679259,-0.10584 -6.808611,-0.23519 z"
         id="path172594" />
      <path
         style="fill:#b5b5b5;stroke-width:0.352778"
         d="m 16.594055,177.16537 c -0.129352,-0.12935 -0.235185,-0.67858 -0.235185,-1.2205 0,-0.69228 -0.40855,-1.36333 -1.373729,-2.25634 -2.937067,-2.71748 -4.571696,-7.61696 -3.905964,-11.70738 0.8786,-5.39832 4.831638,-9.40921 10.733379,-10.89046 l 0.896313,-0.22496 v 10.2688 10.2688 h 0.881945 0.881944 v -10.2688 -10.2688 l 0.896314,0.22496 c 5.941061,1.49112 9.850666,5.48508 10.750119,10.98208 0.661847,4.04487 -0.701029,8.19477 -3.707013,11.2877 -0.910465,0.9368 -1.58942,1.96817 -1.58942,2.41441 0,1.51838 -0.489741,1.62568 -7.420092,1.62568 -3.615385,0 -6.679259,-0.10584 -6.808611,-0.23519 z"
         id="path172592" />
      <path
         style="fill:#b2b2b2;stroke-width:0.352778"
         d="m 16.594055,177.16537 c -0.129352,-0.12935 -0.235185,-0.65114 -0.235185,-1.15953 0,-0.61194 -0.538801,-1.49473 -1.594203,-2.61199 -2.014025,-2.13208 -3.225906,-4.51214 -3.642936,-7.15451 -1.1314202,-7.16887 3.167566,-13.26043 10.690825,-15.14865 l 0.896313,-0.22496 v 10.2688 10.2688 h 0.881945 0.881944 v -10.2688 -10.2688 l 0.896314,0.22496 c 5.941061,1.49112 9.850666,5.48508 10.750119,10.98208 0.661818,4.04469 -0.638767,8.01689 -3.673557,11.21965 -0.915613,0.96629 -1.622876,2.05019 -1.622876,2.48709 0,1.51321 -0.493595,1.62105 -7.420092,1.62105 -3.615385,0 -6.679259,-0.10584 -6.808611,-0.23519 z"
         id="path172590" />
      <path
         style="fill:#b1b1b1;stroke-width:0.352778"
         d="m 16.573002,176.84254 c -0.117773,-0.30691 -0.214132,-0.85836 -0.214132,-1.22544 0,-0.36708 -0.704662,-1.37208 -1.565915,-2.23334 -2.984596,-2.98459 -4.335791,-7.14144 -3.672251,-11.29738 0.880832,-5.51689 4.760754,-9.50708 10.691852,-10.99569 l 0.896313,-0.22496 v 10.2688 10.2688 h 0.881945 0.881944 v -10.2688 -10.2688 l 0.896314,0.22496 c 5.865961,1.47227 9.679391,5.34196 10.695969,10.85379 0.746488,4.04742 -0.662186,8.34957 -3.742978,11.43121 -0.923454,0.92371 -1.499305,1.82205 -1.499305,2.33896 0,1.58618 -0.440155,1.68591 -7.441145,1.68591 -5.687868,0 -6.623918,-0.0767 -6.808611,-0.55802 z"
         id="path172588" />
      <path
         style="fill:#aeaeae;stroke-width:0.352778"
         d="m 16.782203,176.97722 c -0.232833,-0.23283 -0.423333,-0.78428 -0.423333,-1.22544 0,-0.47863 -0.631497,-1.4336 -1.565915,-2.36802 -2.976655,-2.97665 -4.332909,-7.14059 -3.676737,-11.28822 0.871778,-5.51045 4.76527,-9.51624 10.696338,-11.00485 l 0.896313,-0.22496 v 10.2688 10.2688 h 0.881945 0.881944 v -10.2688 -10.2688 l 0.896314,0.22496 c 5.865961,1.47227 9.679391,5.34196 10.695969,10.85379 0.746488,4.04742 -0.662186,8.34957 -3.742978,11.43121 -0.824618,0.82485 -1.504354,1.79007 -1.510524,2.14493 -0.0062,0.35487 -0.22211,0.92303 -0.479864,1.26257 -0.415692,0.54761 -1.183729,0.61737 -6.797391,0.61737 -4.451989,0 -6.454285,-0.12554 -6.752081,-0.42334 z"
         id="path172586" />
      <path
         style="fill:#acacac;stroke-width:0.352778"
         d="m 16.782203,176.97722 c -0.232833,-0.23283 -0.423333,-0.78428 -0.423333,-1.22544 0,-0.48234 -0.644086,-1.44619 -1.615658,-2.41776 -2.849352,-2.84935 -4.190985,-6.94634 -3.62646,-11.07424 0.405281,-2.96348 1.531784,-5.16686 3.818011,-7.46783 1.85359,-1.86554 3.854985,-2.94258 6.877793,-3.70126 l 0.896313,-0.22496 v 10.2688 10.2688 h 0.881945 0.881944 v -10.2688 -10.2688 l 0.896314,0.22496 c 3.022808,0.75868 5.024203,1.83572 6.877792,3.70126 2.242962,2.25743 3.347954,4.37566 3.818624,7.32019 0.645699,4.03951 -0.698357,8.13873 -3.650286,11.13295 -0.875844,0.8884 -1.597493,1.909 -1.603663,2.268 -0.0062,0.35901 -0.22211,0.93056 -0.479864,1.2701 -0.415692,0.54761 -1.183729,0.61737 -6.797391,0.61737 -4.451989,0 -6.454285,-0.12554 -6.752081,-0.42334 z"
         id="path172584" />
      <path
         style="fill:#aaaaaa;stroke-width:0.352778"
         d="m 14.632441,173.18723 c -5.1063987,-5.1639 -4.7596406,-13.94662 0.746078,-18.89674 1.544485,-1.38862 3.915093,-2.56758 6.434037,-3.1998 l 0.896313,-0.22496 v 10.2688 10.2688 h 0.881945 0.881944 v -10.2688 -10.2688 l 0.896314,0.22496 c 4.294697,1.0779 7.428976,3.38585 9.257764,6.817 2.689652,5.04631 1.868182,11.10912 -2.058769,15.19464 -0.804932,0.83744 -1.543628,1.4425 -1.641546,1.34458 -0.09792,-0.0979 -0.178032,-2.49522 -0.178032,-5.32735 0,-4.05002 -0.09314,-5.07201 -0.436296,-4.78722 -0.239964,0.19915 -0.540753,0.25764 -0.668422,0.12997 -0.127668,-0.12767 -0.232124,-0.0569 -0.232124,0.15727 0,0.25116 -0.457805,0.3151 -1.28957,0.18013 -0.856778,-0.13904 -1.212784,-0.085 -1.060772,0.16093 0.127419,0.20617 -0.160909,0.46802 -0.650707,0.59095 -0.860125,0.21588 -0.879507,0.29445 -0.879507,3.56541 v 3.34467 h -1.940277 -1.940278 v -3.175 c 0,-1.74625 0.01356,-3.27632 0.03013,-3.40015 0.03773,-0.28194 -0.793489,-0.82238 -1.264853,-0.82238 -0.194028,0 -0.114653,0.16672 0.176389,0.37048 0.403206,0.2823 0.319232,0.31168 -0.352778,0.12344 -0.485069,-0.13587 -0.995216,-0.42409 -1.13366,-0.64047 -0.138444,-0.21638 -0.376569,-0.40713 -0.529167,-0.42389 -0.152598,-0.0168 -0.56211,-0.15543 -0.910026,-0.30817 -0.347917,-0.15273 -0.744792,-0.16608 -0.881945,-0.0297 -0.137153,0.13641 -0.328743,2.57696 -0.425757,5.42344 l -0.176389,5.17542 z m 13.015317,-7.78112 c 0,-0.19403 0.168119,-0.35278 0.373598,-0.35278 0.205478,0 0.275485,0.15875 0.155569,0.35278 -0.119916,0.19403 -0.288035,0.35278 -0.373598,0.35278 -0.08556,0 -0.155569,-0.15875 -0.155569,-0.35278 z"
         id="path172582" />
      <path
         style="fill:#a8a8a8;stroke-width:0.352778"
         d="m 14.647179,173.21942 c -0.844417,-0.84442 -1.930539,-2.39861 -2.413604,-3.45377 -0.95918,-2.09512 -1.566384,-5.48328 -1.111227,-6.20057 0.157756,-0.24862 0.28926,-0.87922 0.292231,-1.40134 0.003,-0.52213 0.164152,-1.04744 0.35818,-1.16735 0.194028,-0.11992 0.352778,-0.60554 0.352778,-1.07915 0,-0.47362 0.15875,-0.86113 0.352777,-0.86113 0.194028,0 0.352778,-0.15838 0.352778,-0.35196 0,-0.85491 2.667916,-3.9445 4.397461,-5.09251 1.042645,-0.69207 2.055914,-1.25831 2.251708,-1.25831 0.195794,0 0.586277,-0.23028 0.867739,-0.51175 0.281463,-0.28146 0.927802,-0.61617 1.43631,-0.7438 l 0.924559,-0.23205 v 10.2688 10.2688 h 0.881945 0.881944 v -10.23055 c 0,-7.31452 0.112593,-10.23056 0.395019,-10.23056 0.804925,0 5.228585,2.30862 5.238818,2.73403 0.0058,0.24253 0.214505,0.44097 0.463712,0.44097 0.249208,0 0.71793,0.43656 1.041604,0.97014 0.323674,0.53358 1.033486,1.44639 1.577358,2.02847 4.160424,4.45272 3.872356,11.31007 -0.673905,16.04205 l -1.516217,1.57815 -0.09693,-5.72329 -0.09693,-5.7233 h -2.637094 -2.637095 v 4.58612 4.58611 h -1.940277 -1.940278 v -4.58611 -4.58612 h -2.637094 -2.637095 l -0.09693,5.73264 -0.09693,5.73264 z"
         id="path172580" />
      <path
         style="fill:#a4a4a4;stroke-width:0.352778"
         d="m 14.629264,173.16722 c -1.700182,-1.73771 -3.182667,-4.59268 -3.460528,-6.66428 -0.552469,-4.11897 3.744132,-11.63829 7.663954,-13.4124 0.681504,-0.30845 1.594316,-0.91801 2.028472,-1.35457 0.434156,-0.43656 1.027499,-0.79375 1.318541,-0.79375 0.458205,0 0.529166,1.37192 0.529166,10.23056 v 10.23055 h 0.881945 0.881944 v -10.2688 -10.2688 l 0.970139,0.23991 c 0.533576,0.13196 1.287639,0.59944 1.675694,1.03886 0.388056,0.43942 1.555916,1.42024 2.595245,2.17959 2.029548,1.48282 4.366403,4.58277 5.168574,6.85636 0.272339,0.77189 0.40339,1.40344 0.291225,1.40344 -0.112164,0 -0.02238,0.21876 0.199528,0.48614 0.221905,0.26738 0.439781,1.41832 0.484168,2.55764 0.09909,2.54334 -1.06002,5.15506 -3.341967,7.53017 l -1.516217,1.57812 -0.09672,-5.89965 -0.09672,-5.89964 H 28.168404 25.5311 v 4.7625 4.7625 h -1.940277 -1.940278 v -4.7625 -4.7625 h -2.637303 -2.637304 l -0.09672,5.90902 -0.09672,5.90903 z"
         id="path172578" />
      <path
         style="fill:#a1a1a1;stroke-width:0.352778"
         d="m 14.630014,173.1263 c -1.806814,-1.79996 -3.20251,-4.54773 -3.204619,-6.30908 -0.0014,-1.14411 0.452562,-3.33766 0.949047,-4.58611 0.115742,-0.29104 0.251656,-0.72669 0.30203,-0.9681 0.118986,-0.57022 2.197554,-3.94745 2.800783,-4.55068 0.256212,-0.25621 0.519702,-0.58774 0.585533,-0.73673 0.06583,-0.14898 1.032505,-0.86781 2.148165,-1.5974 1.11566,-0.72958 2.028472,-1.48365 2.028472,-1.67569 0,-0.53817 1.34708,-1.76029 1.940278,-1.76029 0.458205,0 0.529166,1.37192 0.529166,10.23056 v 10.23055 h 0.881945 0.881944 v -10.2688 -10.2688 l 0.970139,0.23046 c 0.533576,0.12675 1.128889,0.495 1.322917,0.81833 0.387178,0.6452 1.370253,1.63927 3.749095,3.79101 2.483986,2.24685 4.89396,8.1735 4.89396,12.0353 0,1.58673 -1.250135,3.8142 -3.206125,5.71262 l -1.203597,1.16818 -0.188196,-6.63623 c -0.103507,-3.64993 -0.222569,-6.46795 -0.264583,-6.26227 -0.04201,0.20568 -0.6717,0.38268 -1.399304,0.39332 -0.727605,0.0106 -1.838855,0.0408 -2.469445,0.067 l -1.146528,0.0477 v 5.11528 5.11528 h -1.940277 -1.940278 v -4.90115 c 0,-3.60121 -0.116959,-4.94318 -0.440972,-5.05962 -0.242535,-0.0872 -1.429452,-0.1946 -2.637593,-0.23875 l -2.196621,-0.0803 -0.09643,6.24549 -0.09643,6.2455 z"
         id="path172576" />
      <path
         style="fill:#9e9e9e;stroke-width:0.352778"
         d="m 14.525123,172.91669 c -3.179786,-3.24193 -3.828706,-6.46606 -2.150681,-10.68558 0.115742,-0.29104 0.251656,-0.72669 0.30203,-0.9681 0.118986,-0.57022 2.197554,-3.94745 2.800783,-4.55068 0.256212,-0.25621 0.519702,-0.58774 0.585533,-0.73673 0.06583,-0.14898 1.032505,-0.86781 2.148165,-1.5974 1.11566,-0.72958 2.028472,-1.48365 2.028472,-1.67569 0,-0.53817 1.34708,-1.76029 1.940278,-1.76029 0.458205,0 0.529166,1.37192 0.529166,10.23056 v 10.23055 h 0.881945 0.881944 v -10.2688 -10.2688 l 0.970139,0.23046 c 0.533576,0.12675 1.128889,0.495 1.322917,0.81833 0.387178,0.6452 1.370253,1.63927 3.749095,3.79101 2.483986,2.24685 4.89396,8.1735 4.89396,12.0353 0,1.61072 -1.274949,3.83243 -3.305528,5.76018 l -1.280583,1.21573 -0.0054,-6.68379 c -0.003,-3.67608 -0.122034,-6.51972 -0.264584,-6.3192 -0.142549,0.20052 -0.854493,0.37911 -1.582097,0.39687 -0.727604,0.0178 -1.799167,0.0521 -2.38125,0.0764 l -1.058334,0.0441 v 5.11528 5.11528 h -1.940277 -1.940278 v -4.90115 c 0,-3.60121 -0.116959,-4.94318 -0.440972,-5.05962 -0.242535,-0.0872 -1.429452,-0.1946 -2.637593,-0.23875 l -2.196621,-0.0803 -0.09643,6.21228 -0.09643,6.21228 z"
         id="path172574" />
      <path
         style="fill:#9a9a9a;stroke-width:0.352778"
         d="m 14.403655,172.76598 c -2.558332,-2.72083 -2.842662,-3.59897 -2.304207,-7.11638 0.733686,-4.79275 3.881839,-10.16423 6.552143,-11.17947 0.46939,-0.17847 1.180652,-0.96588 1.580582,-1.74981 0.399931,-0.78392 0.869687,-1.42532 1.043902,-1.42532 0.174216,0 0.567864,-0.0964 0.874775,-0.21413 0.500964,-0.19224 0.558019,0.83575 0.558019,10.05416 v 10.2683 h 0.881945 0.881944 v -10.23727 -10.23728 l 0.970139,0.22542 c 1.03772,0.24113 1.215758,0.42251 2.518787,2.56611 0.463701,0.76282 1.217474,1.55754 1.675051,1.76602 1.953418,0.89004 4.783992,7.0747 5.221894,11.40958 0.290165,2.87241 -0.161823,4.02724 -2.458368,6.28112 l -1.577503,1.54821 v -6.75575 -6.75574 l -2.204861,0.11675 c -1.212674,0.0642 -2.403299,0.13436 -2.645833,0.1559 -0.332127,0.0295 -0.440973,1.38884 -0.440973,5.50721 v 5.46806 H 23.590814 21.650536 V 167.17 161.87833 h -2.637875 -2.637875 l -0.09615,6.38973 -0.09615,6.38973 z"
         id="path172572" />
      <path
         style="fill:#939393;stroke-width:0.352778"
         d="m 14.554702,172.92403 c -2.348822,-2.5119 -2.555485,-3.02716 -2.296919,-5.72673 0.423324,-4.41973 1.972676,-7.98544 4.648799,-10.69883 0.908972,-0.92163 1.782681,-1.67569 1.941576,-1.67569 0.158894,0 0.720911,-0.79375 1.248927,-1.76389 0.528016,-0.97014 1.080565,-1.76389 1.227887,-1.76389 0.147322,0 0.518967,-0.0964 0.825878,-0.21413 0.500964,-0.19224 0.558019,0.83575 0.558019,10.05416 v 10.2683 h 0.881945 0.881944 v -10.2683 c 0,-9.21841 0.05706,-10.2464 0.558019,-10.05416 0.306911,0.11777 0.780487,0.21413 1.052391,0.21413 0.271904,0 0.898462,0.79743 1.392351,1.77208 0.493889,0.97464 1.612046,2.4964 2.484794,3.38168 2.938027,2.98022 4.387376,7.04179 4.278719,11.99043 l -0.06489,2.95511 -1.46289,1.46222 -1.46289,1.46222 -0.253903,-3.38661 c -0.139648,-1.86263 -0.154409,-3.78302 -0.0328,-4.26754 0.121606,-0.48452 0.117305,-1.99776 -0.0096,-3.36277 L 30.72144,160.82 l -1.801424,0.005 c -3.594721,0.01 -3.388925,-0.35679 -3.388925,6.03355 v 5.6033 h -1.940277 -1.940278 l 8.11e-4,-5.55625 8.12e-4,-5.55625 -2.638972,0.11579 -2.638971,0.1158 -0.09586,6.54203 -0.09588,6.54203 z"
         id="path172570" />
      <path
         style="fill:#8c8c8c;stroke-width:0.352778"
         d="m 14.108699,172.43699 -1.721003,-1.9156 0.20402,-2.64799 c 0.112211,-1.45639 0.595767,-3.80588 1.074567,-5.2211 0.871013,-2.57449 3.167295,-6.08124 4.421715,-6.75259 0.36514,-0.19541 1.17691,-1.27173 1.803933,-2.39181 1.348966,-2.40972 1.062125,-2.07382 2.023188,-2.36924 l 0.79375,-0.24398 v 10.25432 10.25433 h 0.881945 0.881944 v -10.2683 c 0,-9.21841 0.05706,-10.2464 0.558019,-10.05416 0.306911,0.11777 0.746518,0.21413 0.976904,0.21413 0.230386,0 0.95834,0.99219 1.617676,2.20486 0.659335,1.21267 1.638089,2.71449 2.175009,3.33737 2.686559,3.11667 3.978527,6.89312 3.989607,11.66171 l 0.0076,3.26921 -1.311017,1.31102 -1.311016,1.31102 v -5.85906 c 0,-3.22247 -0.09088,-6.31545 -0.20196,-6.87328 l -0.20196,-1.01424 -2.620262,0.11607 -2.620263,0.11606 v 5.79296 5.79297 H 23.590814 21.650536 V 166.64083 160.82 h -2.645833 c -1.455208,0 -2.66653,0.0397 -2.691825,0.0882 -0.02529,0.0485 -0.144358,3.09334 -0.264583,6.7663 l -0.218592,6.6781 z"
         id="path172568" />
      <path
         style="fill:#858585;stroke-width:0.352778"
         d="m 14.47237,172.87093 c -1.219262,-1.24991 -1.368839,-1.60373 -1.470443,-3.47837 -0.23682,-4.3694 1.386402,-9.0041 4.223445,-12.05899 0.831983,-0.89587 2.037139,-2.58135 2.678126,-3.74552 0.640987,-1.16416 1.17723,-2.13663 1.191651,-2.16103 0.01442,-0.0244 0.383408,-0.15417 0.81997,-0.28836 l 0.79375,-0.24398 v 10.25432 10.25433 h 0.881945 0.881944 v -10.23727 -10.23728 l 0.970139,0.23274 c 0.533576,0.128 0.983701,0.25009 1.000276,0.2713 0.01658,0.0212 0.77864,1.38794 1.693476,3.03718 0.914836,1.64924 2.119545,3.63361 2.67713,4.40972 1.695475,2.35996 2.563931,5.96615 2.422854,10.0607 -0.112935,3.27779 -0.184127,3.56988 -1.090958,4.47605 l -0.970139,0.96944 v -6.93415 c 0,-5.59227 -0.09915,-7.03329 -0.512368,-7.44651 -0.281802,-0.2818 -0.414094,-0.61064 -0.293981,-0.73075 0.120112,-0.12012 -0.0462,-0.21839 -0.369577,-0.21839 -0.32338,0 -0.587963,-0.18521 -0.587963,-0.41157 0,-0.22637 -0.101997,-0.30958 -0.22666,-0.18492 -0.124663,0.12467 -0.04804,0.44189 0.170282,0.70495 0.309286,0.37267 0.260591,0.46824 -0.220514,0.4328 -0.339601,-0.025 -0.802134,-0.15963 -1.027851,-0.29913 -0.225716,-0.1395 -0.525266,-0.0678 -0.665666,0.1594 -0.170181,0.27536 -0.101341,0.31791 0.20652,0.12764 0.317131,-0.196 0.376988,-0.14819 0.191079,0.15262 -0.175174,0.28343 -0.391662,0.31707 -0.613423,0.0953 -0.18849,-0.18849 -0.646823,-0.26318 -1.018516,-0.16598 -0.634109,0.16582 -0.675807,0.56599 -0.675807,6.48558 v 6.30886 h -1.940277 -1.940278 v -6.31226 c 0,-5.37935 -0.08091,-6.34331 -0.547489,-6.52235 -0.301119,-0.11555 -0.459113,-0.0671 -0.351098,0.10768 0.108016,0.17477 -0.08218,0.26447 -0.422649,0.19934 -0.340473,-0.0651 -0.826848,-0.13058 -1.080834,-0.14542 -0.253985,-0.0148 -0.370458,-0.17477 -0.258828,-0.3554 0.111629,-0.18062 0.0171,-0.44327 -0.210077,-0.58367 -0.25796,-0.15943 -0.318531,-0.10235 -0.161323,0.15201 0.138444,0.22401 0.07423,0.40729 -0.142702,0.40729 -0.216929,0 -0.281145,0.18328 -0.142701,0.40728 0.152423,0.24663 0.09714,0.31175 -0.140162,0.16509 -0.215533,-0.1332 -0.301761,-0.47703 -0.191618,-0.76406 0.13642,-0.3555 0.03428,-0.45818 -0.320401,-0.32207 -1.188119,0.45592 -1.485629,2.01239 -1.669505,8.73426 l -0.181446,6.633 z"
         id="path172566" />
      <path
         style="fill:#7e7e7e;stroke-width:0.352778"
         d="m 14.628723,173.02682 c -1.187371,-1.22622 -1.200702,-1.27564 -1.176468,-4.3614 0.03007,-3.82885 0.743129,-6.41222 2.535218,-9.18493 1.757503,-2.7192 2.467381,-3.15177 1.18916,-0.72462 -0.967137,1.83644 -0.998945,2.07285 -1.170541,8.69948 l -0.176389,6.81173 z m 16.572589,-5.72543 0.02578,-7.01056 0.683397,1.92593 c 1.353663,3.81485 1.218692,10.47381 -0.236777,11.68174 -0.426341,0.35383 -0.494456,-0.5974 -0.472396,-6.59711 z m -9.550776,-2.21031 c 0,-5.93656 -0.09459,-7.40689 -0.486179,-7.55716 -0.267398,-0.10261 -0.687563,-5.3e-4 -0.933698,0.22684 -0.344693,0.31842 -0.390222,0.31193 -0.198149,-0.0282 0.158517,-0.28073 -0.08239,-0.56776 -0.661214,-0.78783 l -0.910586,-0.34621 1.28349,-2.56355 c 1.504451,-3.00488 1.199147,-2.59757 2.170919,-2.89628 l 0.79375,-0.24398 v 10.25432 10.25433 h 0.881945 0.881944 v -10.23727 -10.23728 l 0.970139,0.23274 c 0.533576,0.128 0.991217,0.25009 1.016979,0.2713 0.02576,0.0212 0.61815,1.17974 1.316418,2.5745 l 1.269579,2.53593 -0.787252,0.26799 c -0.432989,0.14739 -0.92579,0.23005 -1.095114,0.18367 -0.169325,-0.0464 -0.223505,0.13551 -0.120402,0.4042 0.136667,0.35615 -0.04278,0.4445 -0.662276,0.32608 l -0.849738,-0.16244 v 7.44946 7.44946 h -1.940277 -1.940278 z"
         id="path172564" />
      <path
         style="fill:#797979;stroke-width:0.352778"
         d="m 14.884355,173.27972 c -0.776757,-0.8171 -0.972594,-1.40338 -1.098121,-3.2875 -0.219811,-3.29926 0.519196,-6.96852 1.91477,-9.50706 0.650059,-1.18246 1.23777,-1.98239 1.306025,-1.77763 0.06826,0.20477 -0.08935,0.62896 -0.350224,0.94266 -0.347786,0.4182 -0.521381,2.44493 -0.650713,7.59717 l -0.176389,7.0268 z m 16.326059,-5.47154 c 0.03312,-6.13416 0.06028,-6.37917 0.539932,-4.87151 0.751351,2.36167 0.989677,6.56914 0.504212,8.90148 -0.783583,3.76462 -1.080055,2.62035 -1.044144,-4.02997 z m -9.559878,-3.4604 c 0,-7.59293 -0.04097,-8.11389 -0.638129,-8.11389 -0.350971,0 -0.924009,-0.20904 -1.273417,-0.46454 -0.603959,-0.44162 -0.587795,-0.55905 0.327791,-2.38125 1.136458,-2.26177 0.882336,-1.9525 1.848338,-2.24944 l 0.79375,-0.24398 v 10.25432 10.25433 h 0.881945 0.881944 v -10.23727 -10.23728 l 0.970139,0.23274 c 1.177134,0.28239 0.889352,-0.0331 2.016557,2.21046 1.040006,2.06997 0.951109,2.32409 -0.958224,2.73919 l -0.970139,0.21091 v 8.06979 8.0698 h -1.940277 -1.940278 z"
         id="path172562" />
      <path
         style="fill:#747474;stroke-width:0.352778"
         d="m 15.181008,173.58444 c -1.478349,-1.63722 -1.570329,-6.50959 -0.197972,-10.48699 l 0.846667,-2.45384 0.100969,3.43958 c 0.05553,1.89178 0.05553,4.9651 0,6.82962 -0.09886,3.31927 -0.114512,3.37504 -0.749664,2.67163 z m 16.078487,-5.35611 c 1.41e-4,-5.76324 0.0048,-5.79814 0.470791,-3.52777 0.580978,2.83059 0.575317,5.27825 -0.01754,7.58472 -0.422277,1.64283 -0.453384,1.3644 -0.453251,-4.05695 z M 21.650536,164.059 v -8.40266 l -1.045788,-0.50498 -1.045789,-0.50497 0.709444,-1.57454 c 0.825853,-1.83289 0.650426,-1.62694 1.646716,-1.93319 l 0.79375,-0.24398 v 10.25432 10.25433 h 0.881945 0.881944 v -10.2683 c 0,-9.21841 0.05706,-10.2464 0.558019,-10.05416 0.306911,0.11777 0.753759,0.21413 0.992995,0.21413 0.469626,0 1.623986,2.15302 1.623986,3.02893 0,0.29455 -0.47625,0.70157 -1.058333,0.90449 l -1.058334,0.36893 v 8.43216 8.43216 h -1.940277 -1.940278 z"
         id="path172560" />
      <path
         style="fill:#6e6e6e;stroke-width:0.352778"
         d="m 15.303239,173.69965 c -1.127549,-1.35862 -1.060851,-8.08638 0.106703,-10.76298 0.510197,-1.16962 0.540112,-0.90456 0.567372,5.02708 0.01583,3.44399 -0.03116,6.26181 -0.104415,6.26181 -0.07326,0 -0.329603,-0.23666 -0.56966,-0.52591 z m 6.347297,-10.06616 v -8.82818 l -0.860237,-0.32706 c -0.848539,-0.32261 -0.852787,-0.34602 -0.312386,-1.72175 0.380929,-0.96975 0.804257,-1.44371 1.389403,-1.55556 l 0.841553,-0.16088 v 10.18164 10.18163 h 0.881945 0.881944 v -10.16945 -10.16946 l 1.036673,0.15215 c 0.773618,0.11354 1.131686,0.42471 1.411111,1.22627 0.523948,1.503 0.487423,1.64889 -0.507506,2.02716 l -0.881945,0.33531 v 8.82818 8.82818 h -1.940277 -1.940278 z m 9.525,4.59484 c 0,-2.19898 0.08309,-3.91506 0.184637,-3.81351 0.267316,0.26732 0.302698,7.32433 0.03805,7.58898 -0.122477,0.12247 -0.222686,-1.57649 -0.222687,-3.77547 z"
         id="path172558" />
      <path
         style="fill:#696969;stroke-width:0.352778"
         d="m 15.504145,169.90403 c -0.116879,-1.60073 -0.068,-3.46604 0.108609,-4.14514 0.248766,-0.95653 0.329252,-0.30078 0.357227,2.91042 0.01986,2.27982 -0.02901,4.14513 -0.108609,4.14513 -0.0796,0 -0.240349,-1.30968 -0.357227,-2.91041 z m 6.146391,-6.7672 c 0,-9.00272 -0.02428,-9.33255 -0.702777,-9.54789 -0.650665,-0.20652 -0.664792,-0.29651 -0.190517,-1.21366 0.281743,-0.54483 0.836118,-1.07529 1.231944,-1.1788 0.712135,-0.18623 0.719683,-0.0813 0.719683,10.00932 v 10.19753 h 0.881945 0.881944 V 161.2058 151.00828 l 0.79375,0.18839 c 1.556002,0.36932 2.215911,1.99599 0.970139,2.39138 -0.682112,0.2165 -0.705556,0.53377 -0.705556,9.54878 v 9.32484 h -1.940277 -1.940278 z"
         id="path172556" />
      <path
         style="fill:#606060;stroke-width:0.352778"
         d="m 21.650536,162.58389 c 0,-8.64568 -0.06755,-9.87778 -0.541579,-9.87778 -0.786655,0 -0.04547,-1.26756 0.883185,-1.51041 0.708244,-0.18521 0.716727,-0.0667 0.716727,10.0101 v 10.19753 h 0.881945 0.881944 V 161.2217 151.04006 l 0.910924,0.17414 c 1.110373,0.21226 1.530853,1.10553 0.731077,1.55311 -0.52093,0.29153 -0.583668,1.36753 -0.583668,10.0105 v 9.68386 h -1.940277 -1.940278 z"
         id="path172554" />
      <path
         style="fill:#595959;stroke-width:0.352778"
         d="m 21.572463,161.8962 c -0.09132,-9.81358 -0.05438,-10.57693 0.519045,-10.72669 0.577444,-0.15081 0.617361,0.49813 0.617361,10.03629 v 10.19753 h 0.881945 0.881944 V 161.2217 151.04006 l 0.906651,0.17332 c 0.643995,0.12311 0.797294,0.28267 0.529167,0.5508 -0.250651,0.25065 -0.377485,3.7912 -0.377485,10.53749 v 10.16 h -1.930156 -1.930156 z"
         id="path172552" />
      <path
         style="fill:#515151;stroke-width:0.352778"
         d="m 21.650536,161.91608 c 0,-9.04843 0.07513,-10.57442 0.529167,-10.74865 0.462865,-0.17762 0.529166,1.07737 0.529166,10.01642 v 10.21948 h 0.881945 0.881944 v -10.21948 c 0,-8.93905 0.0663,-10.19404 0.529167,-10.01642 0.45404,0.17423 0.529166,1.70022 0.529166,10.74865 v 10.54559 h -1.940277 -1.940278 z"
         id="path172550" />
      <path
         style="fill:#3f3f3f;stroke-width:0.352778"
         d="m 21.650536,161.87833 c 0,-9.17222 0.07056,-10.58333 0.529167,-10.58333 0.457992,0 0.529166,1.35231 0.529166,10.05417 v 10.05416 h 0.881945 0.881944 v -10.05416 c 0,-8.70186 0.07118,-10.05417 0.529167,-10.05417 0.458611,0 0.529166,1.41111 0.529166,10.58333 v 10.58334 h -1.940277 -1.940278 z"
         id="path172548" />
      <path
         style="fill:#383838;stroke-width:0.352778"
         d="m 21.650536,157.46861 c 0,-5.25247 0.07896,-6.17361 0.529167,-6.17361 0.450211,0 0.529166,0.92114 0.529166,6.17361 0,5.25247 -0.07896,6.17361 -0.529166,6.17361 -0.450212,0 -0.529167,-0.92114 -0.529167,-6.17361 z m 2.822222,0 c 0,-5.25247 0.07896,-6.17361 0.529167,-6.17361 0.450211,0 0.529166,0.92114 0.529166,6.17361 0,5.25247 -0.07896,6.17361 -0.529166,6.17361 -0.450212,0 -0.529167,-0.92114 -0.529167,-6.17361 z"
         id="path172546" />
      <path
         style="fill:#2d2d2d;stroke-width:0.352778"
         d="m 21.650536,156.76305 c 0,-4.6253 0.08156,-5.46805 0.529167,-5.46805 0.44761,0 0.529166,0.84275 0.529166,5.46805 0,4.62531 -0.08156,5.46806 -0.529166,5.46806 -0.447611,0 -0.529167,-0.84275 -0.529167,-5.46806 z m 2.822222,0 c 0,-4.6253 0.08156,-5.46805 0.529167,-5.46805 0.44761,0 0.529166,0.84275 0.529166,5.46805 0,4.62531 -0.08156,5.46806 -0.529166,5.46806 -0.447611,0 -0.529167,-0.84275 -0.529167,-5.46806 z"
         id="path172544" />
      <path
         style="fill:#252525;stroke-width:0.352778"
         d="m 21.650536,156.23389 c 0,-4.15494 0.084,-4.93889 0.529167,-4.93889 0.445172,0 0.529166,0.78395 0.529166,4.93889 0,4.15494 -0.08399,4.93889 -0.529166,4.93889 -0.445172,0 -0.529167,-0.78395 -0.529167,-4.93889 z m 2.822222,0 c 0,-4.15494 0.084,-4.93889 0.529167,-4.93889 0.445172,0 0.529166,0.78395 0.529166,4.93889 0,4.15494 -0.08399,4.93889 -0.529166,4.93889 -0.445172,0 -0.529167,-0.78395 -0.529167,-4.93889 z"
         id="path172542" />
      <path
         style="fill:#1f1f1f;stroke-width:0.352778"
         d="m 21.885721,160.23204 c -0.129352,-0.12936 -0.235185,-2.19311 -0.235185,-4.58611 0,-3.63231 0.0874,-4.35093 0.529167,-4.35093 0.443233,0 0.529166,0.74475 0.529166,4.58611 0,4.19325 -0.156039,5.01804 -0.823148,4.35093 z m 2.587037,-4.362 c 0,-3.83152 0.086,-4.57504 0.529167,-4.57504 0.441904,0 0.529166,0.72096 0.529166,4.37198 0,3.56077 -0.09819,4.40965 -0.529166,4.57504 -0.453607,0.17406 -0.529167,-0.45022 -0.529167,-4.37198 z"
         id="path172540" />
      <path
         style="fill:#171717;stroke-width:0.352778"
         d="m 21.650536,155.17555 c 0,-3.21419 0.09087,-3.88055 0.529167,-3.88055 0.438299,0 0.529166,0.66636 0.529166,3.88055 0,3.2142 -0.09087,3.88056 -0.529166,3.88056 -0.4383,0 -0.529167,-0.66636 -0.529167,-3.88056 z m 2.822222,0 c 0,-3.21419 0.09087,-3.88055 0.529167,-3.88055 0.438299,0 0.529166,0.66636 0.529166,3.88055 0,3.2142 -0.09087,3.88056 -0.529166,3.88056 -0.4383,0 -0.529167,-0.66636 -0.529167,-3.88056 z"
         id="path172538" />
    </g>
  </g>
</svg>
